<svg width="241" height="241" viewBox="0 0 241 241" fill="none" xmlns="http://www.w3.org/2000/svg">
<path d="M216.9 0H24.1C10.845 0 0.1205 10.845 0.1205 24.1L0 241L48.2 192.8H216.9C230.155 192.8 241 181.955 241 168.7V24.1C241 10.845 230.155 0 216.9 0ZM60.25 84.35H180.75C187.378 84.35 192.8 89.7725 192.8 96.4C192.8 103.028 187.378 108.45 180.75 108.45H60.25C53.6225 108.45 48.2 103.028 48.2 96.4C48.2 89.7725 53.6225 84.35 60.25 84.35ZM132.55 144.6H60.25C53.6225 144.6 48.2 139.178 48.2 132.55C48.2 125.923 53.6225 120.5 60.25 120.5H132.55C139.178 120.5 144.6 125.923 144.6 132.55C144.6 139.178 139.178 144.6 132.55 144.6ZM180.75 72.3H60.25C53.6225 72.3 48.2 66.8775 48.2 60.25C48.2 53.6225 53.6225 48.2 60.25 48.2H180.75C187.378 48.2 192.8 53.6225 192.8 60.25C192.8 66.8775 187.378 72.3 180.75 72.3Z" fill="#2176FF"/>
</svg>
